<!-- Furniture icon set: freeicons.io/icon-list/furniture-9 -->
<!-- Icon by: Hilmy Abiyyu Asad (freeicons.io/profile/75801) -->
<?xml version="1.0" encoding="UTF-8" standalone="no"?>
<svg xmlns="http://www.w3.org/2000/svg" viewBox="0 0 48 48">
  <title>Chair</title>
  <g id="Chair">
    <path
      d="M37,25H35.18l.524-9H36a3,3,0,0,0,3-3V7.442A2.97,2.97,0,0,0,37.213,4.7a33.726,33.726,0,0,0-26.426,0A2.97,2.97,0,0,0,9,7.442V13a3,3,0,0,0,3,3h.3l.524,9H11a3,3,0,0,0-3,3v1a3,3,0,0,0,3,3V44a2,2,0,0,0,2,2h1.133a2.008,2.008,0,0,0,1.979-1.717L17.153,37H30.847l1.041,7.283A2.008,2.008,0,0,0,33.867,46H35a2,2,0,0,0,2-2V32a3,3,0,0,0,3-3V28A3,3,0,0,0,37,25Zm-3.824,0h-2l.524-9h2ZM18.824,25l-.233-4H29.409l-.233,4Zm10.7-6H18.475L18.3,16H29.7ZM11,13V7.442a.986.986,0,0,1,.573-.907,31.727,31.727,0,0,1,24.854,0A.986.986,0,0,1,37,7.442V13a1,1,0,0,1-1,1H12A1,1,0,0,1,11,13Zm3.3,3h2l.524,9h-2Zm-.167,28H13V32h2.847Zm3.306-9,.428-3H30.133l.429,3ZM35,44H33.867L32.153,32H35Zm3-15a1,1,0,0,1-1,1H11a1,1,0,0,1-1-1V28a1,1,0,0,1,1-1H37a1,1,0,0,1,1,1Z"
    />
  </g>
</svg>
